<mxfile host="Electron" modified="2023-04-10T17:29:11.934Z" agent="Mozilla/5.0 (X11; Linux x86_64) AppleWebKit/537.36 (KHTML, like Gecko) draw.io/21.1.2 Chrome/106.0.5249.199 Electron/21.4.3 Safari/537.36" etag="JiogY28w0HGOvnuH72yj" version="21.1.2" type="device">
  <diagram name="Page-1" id="MT_eSa0acJeNsID9RUIV">
    <mxGraphModel dx="574" dy="337" grid="1" gridSize="10" guides="1" tooltips="1" connect="1" arrows="1" fold="1" page="1" pageScale="1" pageWidth="850" pageHeight="1100" math="0" shadow="0">
      <root>
        <mxCell id="0" />
        <mxCell id="1" parent="0" />
        <mxCell id="NRAe5ARmB8Q0SLDfqDeR-1" value="df1" style="rounded=0;whiteSpace=wrap;html=1;" parent="1" vertex="1">
          <mxGeometry x="40" y="40" width="60" height="40" as="geometry" />
        </mxCell>
        <mxCell id="NRAe5ARmB8Q0SLDfqDeR-2" value="new df1" style="rounded=0;whiteSpace=wrap;html=1;" parent="1" vertex="1">
          <mxGeometry x="40" y="140" width="60" height="40" as="geometry" />
        </mxCell>
        <mxCell id="NRAe5ARmB8Q0SLDfqDeR-3" value="" style="endArrow=classic;html=1;rounded=0;exitX=0.5;exitY=1;exitDx=0;exitDy=0;entryX=0.5;entryY=0;entryDx=0;entryDy=0;" parent="1" source="NRAe5ARmB8Q0SLDfqDeR-1" target="NRAe5ARmB8Q0SLDfqDeR-2" edge="1">
          <mxGeometry relative="1" as="geometry">
            <mxPoint x="150" y="100" as="sourcePoint" />
            <mxPoint x="250" y="100" as="targetPoint" />
          </mxGeometry>
        </mxCell>
        <mxCell id="NRAe5ARmB8Q0SLDfqDeR-4" value="View" style="edgeLabel;resizable=0;html=1;align=center;verticalAlign=middle;" parent="NRAe5ARmB8Q0SLDfqDeR-3" connectable="0" vertex="1">
          <mxGeometry relative="1" as="geometry" />
        </mxCell>
        <mxCell id="NRAe5ARmB8Q0SLDfqDeR-5" value="&lt;p style=&quot;line-height: 100%; font-size: 10px;&quot;&gt;&lt;font style=&quot;font-size: 10px;&quot;&gt;Block Reference Tracker&lt;/font&gt;&lt;/p&gt;" style="rounded=1;whiteSpace=wrap;html=1;" parent="1" vertex="1">
          <mxGeometry x="190" y="40" width="60" height="40" as="geometry" />
        </mxCell>
        <mxCell id="NRAe5ARmB8Q0SLDfqDeR-6" value="" style="endArrow=classic;html=1;rounded=0;exitX=1;exitY=0.25;exitDx=0;exitDy=0;entryX=0;entryY=0.25;entryDx=0;entryDy=0;" parent="1" source="NRAe5ARmB8Q0SLDfqDeR-1" target="NRAe5ARmB8Q0SLDfqDeR-5" edge="1">
          <mxGeometry relative="1" as="geometry">
            <mxPoint x="260" y="240" as="sourcePoint" />
            <mxPoint x="360" y="240" as="targetPoint" />
          </mxGeometry>
        </mxCell>
        <mxCell id="NRAe5ARmB8Q0SLDfqDeR-7" value="&lt;div&gt;Hard ref&lt;/div&gt;" style="edgeLabel;resizable=0;html=1;align=center;verticalAlign=middle;" parent="NRAe5ARmB8Q0SLDfqDeR-6" connectable="0" vertex="1">
          <mxGeometry relative="1" as="geometry" />
        </mxCell>
        <mxCell id="NRAe5ARmB8Q0SLDfqDeR-8" value="" style="endArrow=classic;html=1;rounded=0;exitX=0;exitY=0.75;exitDx=0;exitDy=0;entryX=1;entryY=0.75;entryDx=0;entryDy=0;dashed=1;" parent="1" source="NRAe5ARmB8Q0SLDfqDeR-5" target="NRAe5ARmB8Q0SLDfqDeR-1" edge="1">
          <mxGeometry relative="1" as="geometry">
            <mxPoint x="260" y="240" as="sourcePoint" />
            <mxPoint x="360" y="240" as="targetPoint" />
          </mxGeometry>
        </mxCell>
        <mxCell id="NRAe5ARmB8Q0SLDfqDeR-9" value="weakref" style="edgeLabel;resizable=0;html=1;align=center;verticalAlign=middle;" parent="NRAe5ARmB8Q0SLDfqDeR-8" connectable="0" vertex="1">
          <mxGeometry relative="1" as="geometry" />
        </mxCell>
        <mxCell id="NRAe5ARmB8Q0SLDfqDeR-12" value="" style="endArrow=classic;html=1;rounded=0;entryX=0;entryY=0.25;entryDx=0;entryDy=0;exitX=1;exitY=0.25;exitDx=0;exitDy=0;" parent="1" source="NRAe5ARmB8Q0SLDfqDeR-2" target="NRAe5ARmB8Q0SLDfqDeR-5" edge="1">
          <mxGeometry relative="1" as="geometry">
            <mxPoint x="130" y="120" as="sourcePoint" />
            <mxPoint x="190" y="150" as="targetPoint" />
          </mxGeometry>
        </mxCell>
        <mxCell id="NRAe5ARmB8Q0SLDfqDeR-13" value="&lt;div&gt;Hard ref&lt;/div&gt;" style="edgeLabel;resizable=0;html=1;align=center;verticalAlign=middle;" parent="NRAe5ARmB8Q0SLDfqDeR-12" connectable="0" vertex="1">
          <mxGeometry relative="1" as="geometry" />
        </mxCell>
        <mxCell id="NRAe5ARmB8Q0SLDfqDeR-14" value="" style="endArrow=classic;html=1;rounded=0;exitX=0;exitY=0.75;exitDx=0;exitDy=0;dashed=1;entryX=1;entryY=0.75;entryDx=0;entryDy=0;" parent="1" source="NRAe5ARmB8Q0SLDfqDeR-5" target="NRAe5ARmB8Q0SLDfqDeR-2" edge="1">
          <mxGeometry relative="1" as="geometry">
            <mxPoint x="190" y="170" as="sourcePoint" />
            <mxPoint x="140" y="220" as="targetPoint" />
          </mxGeometry>
        </mxCell>
        <mxCell id="NRAe5ARmB8Q0SLDfqDeR-15" value="weakref" style="edgeLabel;resizable=0;html=1;align=center;verticalAlign=middle;" parent="NRAe5ARmB8Q0SLDfqDeR-14" connectable="0" vertex="1">
          <mxGeometry relative="1" as="geometry" />
        </mxCell>
        <mxCell id="kB_T1ozximr7JqJuL3QE-15" value="" style="shape=stencil(lVjLbttADPwaXwnuk9xzmv5HgDiNUdcOnPT196VqSPZyrTFycxSOSC6H5Kw26eH99eltu4n8/nE6ft/+3j1/vG7Sl02Mu8Pr9rT7sF+b9LhJDy/H0/bb6fjz8Hz+++1pspx+/Tj+mt7w54wLJGkCRf57fsAU6/8HX8/m+93hyrySSGeeSWXdPDDl3NkrJQb2maR29iFSBvGERiX2AKEAIrKAXQYxUkrrgMRUQg8Qag0AKnGfc0pUQEg5ELceoKQRAMpQhURV1wHFiso9wOqAAJm4p0WJVEHhiviQilEFeKiBUg+oTA0xL1MrPaBQQB7UU6M2SsCDRGLtAGKFA9SQMp/JAhCqCNDmiJd2CJQBlzSS9NRQSxrkoNVzSZViAYDm2dqYFFS6Bap9i7Y41/42IFHrK90ypQAA1bO1ldnnbYDVta90E0oZAmrxgIpCaqTqAWgIBGZil4RSBtwwF009QAG/p5j6Hp3OASdRxAPunGuMHtAQN5a5tUzjyzmsIXIYXKCY1E8mA0D6id9wBkArxQBlADAGZNcRitkkfjIZAHX1lIM7JZkX5eopDYCMOmLZB1eAiAFuMhkggI6wQwwDIGJ+l6FJy50mHcaAgtk3UU18HVBIt7tacFery7pBfTK15NCkBSeRsgcoCkn9Ir2MnjVAGTyg4TexefAAC/FpQBnqIHgyDYvUtgxcESb7nIdMBZySyrAiImw5zR6guHCmFdzYsG1fQR1MjWg/mExPoEpLnnt+ETR49AmT9CHZK6CKE1/p6RUgh5r80qoVDtc6tGg1gQ88mFDNTusqHH0mhaX3MMllJPDVD4Hc4GrPmXJPDZP8EdA7NU/vzJRAAyW7BvV1SCYsAfli89SIDd5qYpqV7QIwIQg8BPVqw56gzR7MQ08Nuz4GtCDmJXtRJ1CcFP/+CtU9zzRbEp61+Ip57Fd0gJxgfzkxHQ5Iyl4ABHj3GZomzO7WzHv24DsD+4NnuNLYy3mGN3T2eo2hmGL/iWFJ5jbLiH0wiDOBonjziMyLfzti8Ce/1tw1tx+XD0Mvu/3+/F3p+v/+Q5I9On+ESo//AA==);lineShape=1;strokeColor=#FF0000;" vertex="1" parent="1">
          <mxGeometry x="37.8358186107082" y="34.43441451464321" width="53.232753095798486" height="48.130120487724795" as="geometry" />
        </mxCell>
        <mxCell id="kB_T1ozximr7JqJuL3QE-16" value="" style="shape=stencil(lVjLctswDPwaXTHgmzyn6X9kJk7tqWtnHKdt/j5QNZRFUNrUN1legHguQA3u4W3/9LobLL9dL+efuz+H5+t+cN8Gaw+n/e5yuMrT4B4H9/Byvux+XM7vp+fp9+vTiByffp1/jxr+TnKlkHWjlOWP6Y2lwv9efJ/wx8NpiTeUY4P3VMo2Pnvy3OALBYBPYk9q8MZRBAYlS0kJFOK8LRADBdN6HCi6bYGQKLcuOEfeAwHWPnhDCZjkHdnQCIgKBk67WC2eBTKxBQJMoU2bhMGCPIxpbU+QQKMTbOd0SjUzqwImkmvDmi3FCAQcuTZxOdZUrgswZd8KFEqoWHUpFSku4HOqhTbjA3EAhUFR4SNl4IDXESqZHIoQ2RZvGNcR68oWOsigUJl81PgAcsxkisYb4LBY67TDAXTa7N2MT1RAwrievsA70Ppc//3PhDFFr/Ee6De1pRZ4C+w35Hs86oBq7dIeUA+WTOdvAgVnazku4mkh3meNzxiv9GfyoN7EHhWfAhtSKC1pfID5Sp3+DPQbXT9fN6RiXTmgwAYIXUNGwHAdSY/zHza8DpBw5F0NmWtJbeG7AgqwgW3XYAUSUOgKGhNKLhpv0RCrQ3SBNyD+9+JlAqj4e0igoSN0manA/tTVj1AYiL/MzzaeeV6O1v21er2UhRB2WNAZzmIRarFSGXDeOwIl1PNO5zhKj4EeGDfWtuvjvK+tL1uyYbY0FwI8wVvtg0+VCNYFui3ZFbg7hVh5ahYwNdDrW7LXG6bEzQGnk9HUJQseooo0U/ksYMiAKGWniy/VdWHrqqIXfTgshapyaxDDjXfcZVjj0dWp6Gkws98WPniFt1i/mk5c14UtvLrKMSWsv7R4A+OzmHU3AbS+jgcUhU8oYaUue7cEo2k/OswKj0p6nKVe4SO2x2s8um7cfff+Ei8Pt4v+y+F4nL4TLP/XHwbk1fRRwT1+Ag==);lineShape=1;strokeColor=#FF0000;" vertex="1" parent="1">
          <mxGeometry x="40.83695150131666" y="37.63480313809549" width="59.32783694639593" height="38.71594414677993" as="geometry" />
        </mxCell>
        <mxCell id="kB_T1ozximr7JqJuL3QE-17" value="" style="shape=stencil(lZfbbtswDIafxrcERR153XXvUaDpEixrijQ7vf2YBXIjOv6D3jkxP4uUfh40xYf37dPbZhJ+Px0P3ze/d8+n7RS/TCK71+3muDvZ0xQfp/jwcjhuvh0PP1+fL7/fns6W56cfh1/nL/y5cJGknCHhv5c/mHL6/8fXi/l+93plHqS/7vZKuazbi1DTwT4otQgAJZUBkEI1rwOxUh09igmGkDKVMeQkFGUdyJHSCGQmDutAYSpj0LmSIKAS8wCUSLWtA1UojC4V7Z+4DRQqdQBqpAxcatyPaQYqZeBSS1RHl1qgiIDWX89AgtLQ0D2egUoNBK2N1InVnEQrmJjHoDVTQiuYWseD00IC1BqY/VFrpaBwCXcQFlYAcjUgsQcUJIS9rqM2FCe1eazNA4pcshDTAkBBl56RVwCqAnZOJXhA0FFnYvW7lIBcTTrNrWAJgWIwrbkVLAlxDJy9+u4EnR2Q7m2rLICEpGGFqXggoF0yaQQPCJKGiY89kFHQSnGxSwEDjT2gQN63crRQQ1EvmpbtQ8M5ml3KNSp4Be+Swupq33ONXXHjNY/TGMPVPqypKS/KQEN1Iy9KmdUqnKSfA6yniCs0ATbSlr2a7BOwzQU/0FjXUtR552o9A9ZaKwCSB6x5ZwCUhcBr6Fl4G0i9cM3TQ+kz0e0JyFr1eA424gQEBAqjS1lgZUqR4gjYmBbBScfsXbJBEE6i1U8PcmcSZZ8QNswq7O3Eo/hsWq4gaPYzWYRVhr1UI2xYdkJug4hBSZpH2jlaykDWixJpkgMaNWeCM09gK9m3f+4Tx9pGRmeOEib0jfgwF2ieqjNnaO6GTlxFhVLw5kjGvcJe+Q4a+Cevd3fN7eHjJvmy2+8vF9Hr9/7maX9dbq3x8R8=);lineShape=1;strokeColor=#FF0000;" vertex="1" parent="1">
          <mxGeometry x="132.63722294733486" y="40.03401651451736" width="28.622707539737895" height="25.64982574264518" as="geometry" />
        </mxCell>
        <mxCell id="kB_T1ozximr7JqJuL3QE-18" value="" style="shape=stencil(lVfbctpADP0aXjWrve9zmv5HZkIKUwoZQnr5+8qla5BsnzhvtjmH1fVIuwkPb7un1+3Gu7fL+fR9+2v/fNltwpeN9/vjbnveX+RpEx434eHldN5+O5/ej8/X99enATk8/Tj9HP7h95XXKsU2sLz7c/1SKPK/D1+v+MP+eI8PVKPCNwp1GV8LFY1nT64BQiBXNCFRBhaVQkGf4F33aZ7gqBlCIReWCTkSsyKESMUtE1IhDooQA3ngQ3KUsyIkT8PrEiFG8lURMlPNy4RQKemwFiaXACFQ0ieURgwyLYXA2oeaqIITvARRh7UxzIPklZMmRGogrFI5RZvUCmVgEnPP60holFEtkdcHsHPkQGl4m7ePCEwpWYsKSLQU98SD/w21gA/NhqgBj8Va7UDLMKSjdyM+EUN7TBWJ4hRQFI6S0SNPEcSHiY09EmEY/2L8lQijqqbkLb4Cf0UYgrXHQ7zVX989mlcK8s3G04M2jhP7I+VP4XPP4Ep7CiUkXBN/a58oK+PZuvKtzFejBvBSD83iK+iXab21Pq9W1nOFA3baLzJ8wOSY68cM+9H2u2QQ1NtUTzycAlO9GjtupR5yt3Cd4A79COLve/etxMsESBM80Ct2kwJimDCW/tMVUVvfFuYJ0iC6pGUJy+AE8bmZyR17lOcJZTLqHRYttlVdYp/l84RsCTlRQzLkKeg6Shk6HSVKOtEx9y/zO1qioAmhwEmTZRDpPPgK18YsyqAXIukOpHUl9Z1v3CYCJFS2Ttd+5Dw+99k1BokqCKrMFrMpM2XgsWhV1VkTuQEhFS003YaXJ8HnZvBoOIk2s7UngWYWfEzGXyRGw+4WDL6A4THMIlNC8C50t0yORQrvQrdhd0twwHgzjlPPyBI+64LIcMUfhqMzeDSdJMFN/79IE2iAT193P8TLw+1u/bI/HK5X8/vf7V1cPl3v8eHxLw==);lineShape=1;strokeColor=#FF0000;" vertex="1" parent="1">
          <mxGeometry x="133.84262575064145" y="40.81371651487751" width="31.543369137764422" height="15.704938299206741" as="geometry" />
        </mxCell>
        <mxCell id="kB_T1ozximr7JqJuL3QE-19" value="" style="shape=stencil(fZbdcgIhDIWfZm8zQAg/17Z9j85U606tdqz9e/tmZ0c0uJ47xP0I5JwEBl59bp8/1kNwn6fj4W39M76ctgM/DCGM++36OJ50NPDjwKvN4bh+PR6+9i/z74/n6ctp9H74nlb4nbmSKZeJCu5vngmZ6jzzNAO7cX8FVKEsBuBKrgKg9oAE8gkCbLeUhEoEQKSUDZDLeWYRKIl8MEDRmHwfyBrBG6Amyu4+kDxxMoB3jhwgYu7TVAsVkFcWCs4CTBEoF4RctKeOxHIf8IXYpikHikAIf+MNUW94AGSSaoAoFIE3AlOyeWU+p2E5S9yfQZcQILVuQOwZdJNoS9Ls3wA5u2XZTIHECqeJ9kDpSaauRiNVcAY1QhdBzeLBli5WazpkSsBLV25uRaqWRyFawTQzRRIQYirJzq5atkBqLfouwqUxLBepthWb10vrWZY6UOAeyKCCtDV625mm9gmUC4Wc3VLJMMIE1BsA2FW9JraVlQB7n3c9oMKhCLEvIM1zBPZ25/umNQ1tVEC2G+fFCC8g398O2hNQuQlVu752DBfA+q0ptnqO5JFmeuIuo9DY7KjY71UxdJV4EntifPWorW++R/dC4t7V3DlIB5cHx2bc7eb3yvX//QNFp+bHDT/+Aw==);lineShape=1;" vertex="1" parent="1">
          <mxGeometry x="38.747184336990244" y="34.95012498340765" width="1.8690159088461769" height="1.8660944865430793" as="geometry" />
        </mxCell>
      </root>
    </mxGraphModel>
  </diagram>
</mxfile>
